<svg height="512" viewBox="0 0 512 512" width="512" xmlns="http://www.w3.org/2000/svg"><g id="filled_outline" data-name="filled outline"><path d="m416 376-32-16-11.2-33.614a21.038 21.038 0 0 0 -19.964-14.386 21.039 21.039 0 0 0 -20.753 24.5l3.917 23.5-32 24 8 104h53.215a56 56 0 0 0 20.8-4l29.985-12h56v-96z" fill="#f5d3bd"/><path d="m328 456h-8a16 16 0 0 0 16-16 16 16 0 0 0 -16-16h-8a16 16 0 0 0 16-16 16 16 0 0 0 -16-16h-32a16 16 0 0 0 -16 16 16 16 0 0 0 16 16h8a16 16 0 0 0 -16 16 16 16 0 0 0 16 16h8a16 16 0 0 0 -16 16 16 16 0 0 0 16 16h32a16 16 0 0 0 16-16 16 16 0 0 0 -16-16z" fill="#e8c8b3"/><rect fill="#007af6" height="224" rx="24" width="192" x="160" y="24"/><path d="m312 392h-88a16 16 0 0 1 -16-16 16 16 0 0 1 16-16h112z" fill="#f5d3bd"/><rect fill="#f5d3bd" height="32" rx="16" width="64" x="256" y="392"/><path d="m336.13 359.954 5.3 15.029c.015.043.03.086.044.129a36.351 36.351 0 0 0 34.526 24.888v16a52.33 52.33 0 0 1 -49.686-35.76l-7.133-20.24z" fill="#e8c8b3"/><path d="m224 304-19.2 25.6a24 24 0 0 0 -4.8 14.4 24 24 0 0 0 24 24 24 24 0 0 0 24-24 24 24 0 0 0 -4.8-14.4z" fill="#f55648"/><path d="m192 56h128v96h-128z" fill="#bce1ff"/><path d="m236 136h-12a8 8 0 0 1 0-16h12a4 4 0 0 0 0-8h-12a8 8 0 0 1 -8-8v-24a8 8 0 0 1 8-8h24a8 8 0 0 1 0 16h-16v8h4a20 20 0 0 1 0 40z" fill="#60b9f3"/><path d="m284 136a20.023 20.023 0 0 1 -20-20v-28a16.019 16.019 0 0 1 16-16h16a8 8 0 0 1 0 16h-16v8h4a20 20 0 0 1 0 40zm-4-24v4a4 4 0 1 0 4-4z" fill="#60b9f3"/><g fill="#0a71cd"><rect height="32" rx="16" width="48" x="232" y="184"/><path d="m208 200h-16a8 8 0 0 1 0-16h16a8 8 0 0 1 0 16z"/><path d="m208 224h-16a8 8 0 0 1 0-16h16a8 8 0 0 1 0 16z"/><path d="m320 224h-16a8 8 0 0 1 0-16h16a8 8 0 0 1 0 16z"/><path d="m320 200h-16a8 8 0 0 1 0-16h16a8 8 0 0 1 0 16z"/></g><path d="m240 248h32v72h-32z" fill="#ebebeb"/><path d="m240 280h32v16h-32z" fill="#f55648"/><path d="m144 337.646h24v16h-24z" fill="#bce1ff"/><path d="m174 389.608h24v16h-24z" fill="#bce1ff" transform="matrix(.5 -.866 .866 .5 -251.339 359.885)"/><path d="m178 281.684h16v24h-16z" fill="#bce1ff" transform="matrix(.866 -.5 .5 .866 -121.921 132.343)"/><rect fill="#f5d3bd" height="32" rx="16" width="64" x="264" y="424"/><rect fill="#f5d3bd" height="32" rx="16" width="64" x="272" y="456"/><path d="m288 496h77.215a63.728 63.728 0 0 0 23.769-4.577l28.557-11.423h54.459a8 8 0 0 0 8-8v-96a8 8 0 0 0 -8-8h-54.111l-27.347-13.674-10.157-30.471a29.039 29.039 0 0 0 -56.193 13.958l2.364 14.187h-71.569a31.883 31.883 0 0 0 -3.308-24h20.321a8 8 0 0 0 8-8v-64h48a32.036 32.036 0 0 0 32-32v-176a32.036 32.036 0 0 0 -32-32h-144a32.036 32.036 0 0 0 -32 32v176a32.036 32.036 0 0 0 32 32h48v45.333l-1.6-2.133a8 8 0 0 0 -12.8 0l-19.2 25.6a31.957 31.957 0 0 0 3.363 42.179 23.994 23.994 0 0 0 22.237 33.021h25.376a23.964 23.964 0 0 0 9.725 28.223 23.952 23.952 0 0 0 8 32 23.982 23.982 0 0 0 20.899 35.777zm-16-56a8.009 8.009 0 0 1 8-8h32a8 8 0 0 1 0 16h-32a8.009 8.009 0 0 1 -8-8zm48 40h-32a8 8 0 0 1 0-16h32a8 8 0 0 1 0 16zm-56-168h-16v-16h16zm0-32h-16v-24h16zm-80-40a16.019 16.019 0 0 1 -16-16v-176a16.019 16.019 0 0 1 16-16h144a16.019 16.019 0 0 1 16 16v176a16.019 16.019 0 0 1 -16 16zm24 104a16.1 16.1 0 0 1 3.2-9.6l12.8-17.067 12.8 17.067a16 16 0 1 1 -28.8 9.6zm17.064 40a9.365 9.365 0 0 1 -7.714-3.935 6.877 6.877 0 0 1 -1.287-5.065 31.955 31.955 0 0 0 29.069-7h85.1l4.058 12.173a52.33 52.33 0 0 0 49.71 35.827v-16a36.351 36.351 0 0 1 -34.53-24.888l-2.9-8.711a111.951 111.951 0 0 1 -4.224-17l-2.314-13.886a13.473 13.473 0 0 1 1.405-8.807 13.045 13.045 0 0 1 13.287-6.57 13.371 13.371 0 0 1 10.6 9.139l11.085 33.255a8 8 0 0 0 4.012 4.626l32 16a8 8 0 0 0 3.579.842h48v80h-48a8 8 0 0 0 -2.971.572l-29.987 12a47.791 47.791 0 0 1 -17.827 3.428h-22.591a23.964 23.964 0 0 0 -9.725-28.223 23.952 23.952 0 0 0 -8-32 23.857 23.857 0 0 0 3.065-13.093c-.691-12.827-11.694-22.684-24.539-22.684zm38.936 24a8.009 8.009 0 0 1 8-8h32a8 8 0 0 1 0 16h-32a8.009 8.009 0 0 1 -8-8z"/><path d="m192 160h128a8 8 0 0 0 8-8v-96a8 8 0 0 0 -8-8h-128a8 8 0 0 0 -8 8v96a8 8 0 0 0 8 8zm8-96h112v80h-112z"/><path d="m248 88a8 8 0 0 0 0-16h-24a8 8 0 0 0 -8 8v24a8 8 0 0 0 8 8h12a4 4 0 0 1 0 8h-12a8 8 0 0 0 0 16h12a20 20 0 0 0 0-40h-4v-8z"/><path d="m296 88a8 8 0 0 0 0-16h-16a16.019 16.019 0 0 0 -16 16v28a20 20 0 1 0 20-20h-4v-8zm-12 24a4 4 0 1 1 -4 4v-4z"/><path d="m264 224a24 24 0 0 0 0-48h-16a24 24 0 0 0 0 48zm-24-24a8.009 8.009 0 0 1 8-8h16a8 8 0 0 1 0 16h-16a8.009 8.009 0 0 1 -8-8z"/><path d="m208 184h-16a8 8 0 0 0 0 16h16a8 8 0 0 0 0-16z"/><path d="m208 208h-16a8 8 0 0 0 0 16h16a8 8 0 0 0 0-16z"/><path d="m320 208h-16a8 8 0 0 0 0 16h16a8 8 0 0 0 0-16z"/><path d="m320 184h-16a8 8 0 0 0 0 16h16a8 8 0 0 0 0-16z"/><path d="m144 337.646h24v16h-24z"/><path d="m174 389.608h24v16h-24z" transform="matrix(.5 -.866 .866 .5 -251.338 359.881)"/><path d="m178 281.684h16v24h-16z" transform="matrix(.866 -.5 .5 .866 -121.921 132.343)"/></g></svg>