<?xml version="1.0" encoding="utf-8"?>
<!-- Generator: Adobe Illustrator 16.0.0, SVG Export Plug-In . SVG Version: 6.00 Build 0)  -->
<!DOCTYPE svg PUBLIC "-//W3C//DTD SVG 1.1//EN" "http://www.w3.org/Graphics/SVG/1.1/DTD/svg11.dtd">
<svg version="1.1" id="veggy_salad" xmlns="http://www.w3.org/2000/svg" xmlns:xlink="http://www.w3.org/1999/xlink" x="0px"
	 y="0px" width="400px" height="312px" viewBox="0 0 400 312" enable-background="new 0 0 400 312" xml:space="preserve">
<g id="parts">
	<path fill="#FFE37B" d="M200.117,68.765c-4.412-24.704-25.587-44.118-52.058-44.118c-26.472,0-47.646,19.414-52.059,44.118H200.117
		z"/>
	<path fill="#004463" d="M209.823,86.412H86.294c-5.295,0-8.822-3.529-8.822-8.824C77.471,38.766,109.236,7,148.059,7
		c38.822,0,70.588,31.766,70.588,70.588C218.646,82.883,215.123,86.412,209.823,86.412 M96.001,68.765h104.116
		c-4.412-24.704-25.587-44.118-52.058-44.118C121.588,24.647,100.413,44.061,96.001,68.765"/>
	<path fill="#004463" d="M183.353,86.412h-70.588c-5.291,0-8.823-3.529-8.823-8.824c0-24.704,19.413-44.117,44.117-44.117
		c24.709,0,44.118,19.413,44.118,44.117C192.177,82.883,188.648,86.412,183.353,86.412 M123.354,68.765h50.296
		c-3.533-10.59-13.235-17.647-24.708-17.647C137.473,51.118,126.883,58.175,123.354,68.765"/>
	<path fill="#F6B545" d="M201,51.118c9.736,0,17.646,7.906,17.646,17.647c0,9.741-7.91,17.647-17.646,17.647
		c-9.741,0-17.646-7.906-17.646-17.647C183.353,59.024,191.259,51.118,201,51.118"/>
	<path fill="#004463" d="M201,104.059c-19.414,0-35.294-15.88-35.294-35.294c0-19.413,15.88-35.294,35.294-35.294
		s35.294,15.881,35.294,35.294S220.414,104.059,201,104.059 M201,51.118c-9.707,0-17.646,7.94-17.646,17.647
		S191.293,86.412,201,86.412c9.702,0,17.646-7.94,17.646-17.647S210.702,51.118,201,51.118"/>
	<path fill="#DF7F4E" d="M236.294,33.471c9.737,0,17.647,7.906,17.647,17.647c0,9.741-7.91,17.647-17.647,17.647
		c-9.736,0-17.646-7.906-17.646-17.647C218.647,41.377,226.557,33.471,236.294,33.471"/>
	<path fill="#004463" d="M236.294,86.412C216.881,86.412,201,70.531,201,51.118c0-19.413,15.881-35.294,35.294-35.294
		s35.294,15.881,35.294,35.294C271.588,70.531,255.707,86.412,236.294,86.412 M236.294,33.471c-9.702,0-17.646,7.94-17.646,17.647
		s7.944,17.647,17.646,17.647s17.647-7.94,17.647-17.647S245.996,33.471,236.294,33.471"/>
	<path fill="#F04D4E" d="M77.471,95.235c9.74,0,17.646,7.906,17.646,17.647c0,9.741-7.906,17.647-17.646,17.647
		c-9.741,0-17.647-7.906-17.647-17.647C59.824,103.141,67.729,95.235,77.471,95.235"/>
	<path fill="#004463" d="M77.471,148.177c-19.414,0-35.294-15.881-35.294-35.294c0-19.413,15.88-35.294,35.294-35.294
		c19.412,0,35.294,15.881,35.294,35.294C112.765,132.296,96.884,148.177,77.471,148.177 M77.471,95.235
		c-9.707,0-17.647,7.94-17.647,17.647s7.94,17.647,17.647,17.647s17.646-7.94,17.646-17.647S87.177,95.235,77.471,95.235"/>
	<path fill="#5DA500" d="M90.441,53.941c9.741,0,17.646,7.905,17.646,17.646c0,9.741-7.904,17.647-17.646,17.647
		s-17.647-7.906-17.647-17.647C72.794,61.846,80.7,53.941,90.441,53.941"/>
	<path fill="#004463" d="M90.441,106.882c-19.414,0-35.294-15.88-35.294-35.294c0-19.413,15.88-35.294,35.294-35.294
		c19.413,0,35.294,15.881,35.294,35.294C125.735,91.002,109.854,106.882,90.441,106.882 M90.441,53.941
		c-9.707,0-17.647,7.94-17.647,17.646c0,9.707,7.94,17.647,17.647,17.647s17.646-7.94,17.646-17.647
		C108.088,61.882,100.148,53.941,90.441,53.941"/>
	<path fill="#86A2BC" d="M148.059,280.529c0,5.291,3.528,8.824,8.823,8.824h88.235c5.291,0,8.824-3.533,8.824-8.824H148.059z"/>
	<path fill="#EDF1F9" d="M368.646,139.353H33.353c-5.295,0-8.824,3.529-8.824,8.824c0,63.53,51.175,114.706,114.706,114.706h123.529
		c63.531,0,114.706-51.176,114.706-114.706C377.471,142.882,373.938,139.353,368.646,139.353"/>
	<path fill="#004463" d="M395.117,148.177c0-15.002-11.469-26.471-26.471-26.471H33.353c-15.002,0-26.472,11.469-26.472,26.471
		c0,69.709,54.708,127.061,123.53,131.473v0.879c0,15.002,11.469,26.472,26.47,26.472h88.235c15.002,0,26.471-11.47,26.471-26.472
		v-0.879C340.41,275.238,395.117,217.887,395.117,148.177 M245.117,289.354h-88.235c-5.295,0-8.823-3.533-8.823-8.824h105.883
		C253.941,285.82,250.408,289.354,245.117,289.354 M262.765,262.883h-123.53c-63.531,0-114.706-51.176-114.706-114.706
		c0-5.295,3.529-8.824,8.824-8.824h335.293c5.291,0,8.824,3.529,8.824,8.824C377.471,211.707,326.297,262.883,262.765,262.883"/>
	<path fill="#97AABF" d="M368.646,139.353h-35.293c0,63.532-51.176,114.706-114.707,114.706h-87.353
		c-15.002,0-30.882-4.412-43.233-14.113c-27.354-20.301-45.885-53.828-45.885-91.768c0-5.295,3.528-8.824,8.823-8.824H33.353
		c-5.295,0-8.824,4.412-8.824,8.824c0,63.53,51.175,114.706,114.706,114.706h17.646h105.883
		c63.531,0,114.706-51.176,114.706-114.706C377.471,143.765,373.938,139.353,368.646,139.353"/>
	<path fill="#FFCF35" d="M341.289,121.706c-4.411-34.411-34.405-61.765-69.701-61.765c-35.294,0-65.297,27.354-69.709,61.765
		H341.289z"/>
	<path fill="#004463" d="M351,139.353H192.177c-5.296,0-8.824-3.529-8.824-8.824c0-48.529,39.706-88.235,88.234-88.235
		c48.529,0,88.235,39.706,88.235,88.235C359.823,135.824,356.291,139.353,351,139.353 M201.888,121.706h140.289
		c-4.412-34.411-34.415-61.765-69.711-61.765C237.173,59.941,206.299,87.295,201.888,121.706"/>
	<path fill="#004463" d="M324.529,139.353H218.646c-5.29,0-8.823-3.529-8.823-8.824c0-34.411,27.358-61.765,61.765-61.765
		c34.417,0,61.767,27.354,61.767,61.765C333.354,135.824,329.828,139.353,324.529,139.353 M228.358,121.706h86.469
		c-4.411-20.292-22.06-35.294-43.239-35.294C250.417,86.412,232.77,101.414,228.358,121.706"/>
	<path fill="#004463" d="M298.059,139.353h-52.941c-5.299,0-8.823-3.529-8.823-8.824c0-19.413,15.881-35.294,35.294-35.294
		c19.414,0,35.296,15.881,35.296,35.294C306.884,135.824,303.35,139.353,298.059,139.353 M256.586,121.706h30.884
		c-2.646-5.295-8.823-8.824-15.003-8.824C266.289,112.882,259.232,116.411,256.586,121.706"/>
	<path fill="#A7E564" d="M129.5,89.5c-2.646-0.883-7.028,1.323-7.912,2.207c-1.762,1.762-2.645,7.057-2.645,7.057
		s-5.295,19.414-13.235,23.825h113.818c-8.814-4.412-14.113-14.118-13.228-23.825c0-2.646-0.887-5.295-2.652-7.057
		c-0.879-0.884-2.646-1.767-5.291-0.884c-10.59,4.412-22.942,0-29.12-9.707c-2.646-4.412-7.94-4.412-10.586,0
		c-8.824,9.707-17.857,10.264-25.149,9.707"/>
	<path fill="#004463" d="M236.294,139.353h-150c-2.646,0-4.412-0.883-6.174-2.646c-1.767-1.766-2.648-3.533-2.648-6.178
		c0-11.469,7.062-21.176,17.646-23.825c2.65-0.879,5.295-4.412,5.295-7.94c-0.883-8.823,3.529-16.764,10.59-22.059
		C118.06,72.293,126,71.41,133.94,74.06c2.648,0.883,6.178,0,7.943-2.649c4.412-7.057,12.354-11.469,20.292-11.469
		c7.94,0,15.881,4.412,20.292,11.469c1.768,2.649,4.412,3.533,7.944,2.649c7.94-2.649,15.885-1.767,22.942,2.646
		c7.058,5.295,10.581,13.235,10.581,22.059c0,3.529,1.767,7.062,5.3,7.94c10.59,2.649,17.646,12.356,17.646,23.825
		c0,2.646-0.888,4.412-2.646,6.178C240.706,138.47,238.939,139.353,236.294,139.353 M104.824,121.706
		c0.676,6.461,113.822,0,113.822,0c-8.823-4.412-14.113-14.119-13.234-23.825c0-2.646-0.879-5.291-2.646-7.058
		c-0.879-0.883-2.65-1.766-5.295-0.883c-10.591,4.412-22.942,0-29.116-9.707c-2.649-4.412-7.944-4.412-10.59,0
		c-6.179,9.707-18.53,14.119-29.116,9.707c-2.649-0.883-4.412,0-5.295,0.883c-1.768,1.767-2.855,8.294-5.188,13.236
		S112.666,119.667,104.824,121.706"/>
	<path fill="#4E9CD5" d="M201,174.646c4.868,0,8.823,3.955,8.823,8.824c0,4.867-3.955,8.822-8.823,8.822s-8.822-3.955-8.822-8.822
		C192.177,178.602,196.132,174.646,201,174.646"/>
	<path fill="#4E9CD5" d="M245.117,174.646c4.869,0,8.824,3.955,8.824,8.824c0,4.867-3.955,8.822-8.824,8.822
		c-4.868,0-8.823-3.955-8.823-8.822C236.294,178.602,240.249,174.646,245.117,174.646"/>
	<path fill="#4E9CD5" d="M289.235,174.646c4.868,0,8.823,3.955,8.823,8.824c0,4.867-3.955,8.822-8.823,8.822
		s-8.823-3.955-8.823-8.822C280.412,178.602,284.367,174.646,289.235,174.646"/>
	<path fill="#3689C9" d="M333.354,174.646c4.868,0,8.823,3.955,8.823,8.824c0,4.867-3.955,8.822-8.823,8.822
		c-4.869,0-8.824-3.955-8.824-8.822C324.529,178.602,328.484,174.646,333.354,174.646"/>
	<path fill="#4E9CD5" d="M112.765,174.646c4.867,0,8.822,3.955,8.822,8.824c0,4.867-3.955,8.822-8.822,8.822
		c-4.868,0-8.823-3.955-8.823-8.822C103.941,178.602,107.896,174.646,112.765,174.646"/>
	<path fill="#4E9CD5" d="M156.882,174.646c4.869,0,8.824,3.955,8.824,8.824c0,4.867-3.955,8.822-8.824,8.822
		c-4.868,0-8.823-3.955-8.823-8.822C148.059,178.602,152.014,174.646,156.882,174.646"/>
	<path fill="#4E9CD5" d="M68.647,174.646c4.869,0,8.824,3.955,8.824,8.824c0,4.867-3.955,8.822-8.824,8.822
		s-8.824-3.955-8.824-8.822C59.823,178.602,63.778,174.646,68.647,174.646"/>
</g>
</svg>
